{
    "asset" : {
        "generator" : "Khronos glTF Blender I/O v1.4.40",
        "version" : "2.0"
    },
    "scene" : 0,
    "scenes" : [
        {
            "name" : "Scene",
            "nodes" : [
                0
            ]
        }
    ],
    "nodes" : [
        {
            "mesh" : 0,
            "name" : "enemy"
        }
    ],
    "materials" : [
        {
            "doubleSided" : true,
            "name" : "enemy-material",
            "pbrMetallicRoughness" : {
                "baseColorFactor" : [
                    0.38025736808776855,
                    0.0353139229118824,
                    0.8000000715255737,
                    1
                ],
                "metallicFactor" : 0.5,
                "roughnessFactor" : 0.25925925374031067
            }
        }
    ],
    "meshes" : [
        {
            "name" : "Cube",
            "primitives" : [
                {
                    "attributes" : {
                        "POSITION" : 0,
                        "NORMAL" : 1,
                        "TEXCOORD_0" : 2
                    },
                    "indices" : 3,
                    "material" : 0
                }
            ]
        }
    ],
    "accessors" : [
        {
            "bufferView" : 0,
            "componentType" : 5126,
            "count" : 11204,
            "max" : [
                1.9675005674362183,
                1.9675006866455078,
                1.9675005674362183
            ],
            "min" : [
                -1.9675004482269287,
                -1.9675004482269287,
                -1.9675005674362183
            ],
            "type" : "VEC3"
        },
        {
            "bufferView" : 1,
            "componentType" : 5126,
            "count" : 11204,
            "type" : "VEC3"
        },
        {
            "bufferView" : 2,
            "componentType" : 5126,
            "count" : 11204,
            "type" : "VEC2"
        },
        {
            "bufferView" : 3,
            "componentType" : 5123,
            "count" : 46656,
            "type" : "SCALAR"
        }
    ],
    "bufferViews" : [
        {
            "buffer" : 0,
            "byteLength" : 134448,
            "byteOffset" : 0
        },
        {
            "buffer" : 0,
            "byteLength" : 134448,
            "byteOffset" : 134448
        },
        {
            "buffer" : 0,
            "byteLength" : 89632,
            "byteOffset" : 268896
        },
        {
            "buffer" : 0,
            "byteLength" : 93312,
            "byteOffset" : 358528
        }
    ],
    "buffers" : [
        {
            "byteLength" : 451840,
            "uri" : "data:application/octet-stream;base64,"
        }
    ]
}
